<svg id="Layer_1" data-name="Layer 1" xmlns="http://www.w3.org/2000/svg" viewBox="0 0 144 129"><defs><style>.cls-1{fill:#7cf4bb;}.cls-2{fill:none;stroke:#212638;stroke-miterlimit:10;stroke-width:2px;}</style></defs><title>phishing</title><polygon class="cls-1" points="0.51 32.83 143.59 54.26 113.78 105.06 0.51 32.83"/><path class="cls-2" d="M71,82.18H88.15a6,6,0,0,0,6-6v-14a6,6,0,0,0-6-6H21.42a6,6,0,0,0-6,6v14a6,6,0,0,0,6,6H65"/><circle class="cls-2" cx="25.38" cy="68.94" r="3.96"/><circle class="cls-2" cx="34.38" cy="68.94" r="3.96"/><circle class="cls-2" cx="44.38" cy="68.94" r="3.96"/><circle class="cls-2" cx="54.38" cy="68.94" r="3.96"/><circle class="cls-2" cx="84.14" cy="46.18" r="5.72"/><line class="cls-2" x1="84.14" y1="24.86" x2="84.14" y2="40.45"/><line class="cls-2" x1="82.18" y1="51.9" x2="82.18" y2="56.27"/><line class="cls-2" x1="86.77" y1="51.9" x2="86.77" y2="56.27"/><path class="cls-2" d="M79.44,82.18l0,3.9s.47,2.07-3.66,2.07S71,86.31,71,86.31v-11h6.37l-9.63-9-9.41,9H65V89.46S66,96,76.45,95.57c9.34-.39,9.32-7,9.32-7V82.18"/></svg>