<svg id="Layer_1" data-name="Layer 1" xmlns="http://www.w3.org/2000/svg" viewBox="0 0 144 129"><defs><style>.cls-1{fill:#7cf4bb;}.cls-2{fill:none;stroke:#212638;stroke-miterlimit:10;stroke-width:2px;}</style></defs><title>scan</title><polygon class="cls-1" points="39.31 43.66 2.62 87 142.27 89.29 39.31 43.66"/><path class="cls-2" d="M44.75,30.54A23.74,23.74,0,1,0,68.5,54.29,23.75,23.75,0,0,0,44.75,30.54Zm8.72,40.34A18.55,18.55,0,0,1,44.75,73,18.75,18.75,0,1,1,63.5,54.29,18.53,18.53,0,0,1,61,63.58,18.75,18.75,0,0,1,53.47,70.88Z"/><path class="cls-2" d="M63.5,54.29A18.53,18.53,0,0,1,61,63.58a18.75,18.75,0,0,1-7.55,7.3A18.55,18.55,0,0,1,44.75,73,18.75,18.75,0,1,1,63.5,54.29Z"/><path class="cls-2" d="M64.77,67.06,89.6,90.12a5.25,5.25,0,1,1-7.14,7.69L57.31,74.45"/><path class="cls-2" d="M53.47,70.88A18.75,18.75,0,0,0,61,63.58"/></svg>