<svg id="Layer_1" data-name="Layer 1" xmlns="http://www.w3.org/2000/svg" viewBox="0 0 144 129"><defs><style>.cls-1{fill:#7cf4bb;}.cls-2{fill:none;stroke:#212638;stroke-miterlimit:10;stroke-width:2px;}</style></defs><title>spam</title><polygon class="cls-1" points="129.3 14.29 13.28 49.35 52.26 114.72 129.3 14.29"/><path class="cls-2" d="M46.34,36.43V63.31L77.87,80.58l30.38-16.64V36.43ZM77,69.14a8.71,8.71,0,0,1-8.72-8.71c0-.13,0-.25,0-.38a8.71,8.71,0,0,1,17.41,0c0,.13,0,.25,0,.38A8.71,8.71,0,0,1,77,69.14Z"/><path class="cls-2" d="M85.72,60.43a8.72,8.72,0,0,1-17.43,0c0-.13,0-.25,0-.38a8.71,8.71,0,0,1,17.41,0C85.72,60.18,85.72,60.3,85.72,60.43Z"/><path class="cls-2" d="M115.36,60.05V91.24a10.54,10.54,0,0,1-10.54,10.54H50.93a10.71,10.71,0,0,1-3.27-.51A10.44,10.44,0,0,1,44,99.15l32.86-18,1-.57,30.38-16.64Z"/><line class="cls-2" x1="115.36" y1="60.05" x2="108.25" y2="60.05"/><line class="cls-2" x1="46.34" y1="60.05" x2="40.38" y2="60.05"/><path class="cls-2" d="M77.87,80.58l-1,.57L44,99.15a10.48,10.48,0,0,1-3.59-7.91V60.05l6,3.26Z"/><path class="cls-2" d="M85.72,60.43a8.72,8.72,0,0,1-17.43,0c0-.13,0-.25,0-.38a8.71,8.71,0,0,1,17.41,0C85.72,60.18,85.72,60.3,85.72,60.43Z"/><path class="cls-2" d="M84.41,36.43s-8.49-9.17-13.53,0a12.47,12.47,0,0,0,2.21,15.5"/><path class="cls-2" d="M69.29,40S74.48,52,79.78,51.91"/></svg>